<svg width="31" height="19" viewBox="0 0 31 19" fill="none" xmlns="http://www.w3.org/2000/svg">
<path d="M23.1725 14.2025C20.9645 15.234 18.276 15.8055 15.5 15.8333C6.45835 15.8333 1.29169 9.49999 1.29169 9.49999C2.89838 7.66482 5.12682 6.06147 7.82752 4.79749M12.7875 3.35666C13.6766 3.2291 14.5869 3.16534 15.5 3.16666C24.5417 3.16666 29.7084 9.49999 29.7084 9.49999C28.9243 10.399 27.9892 11.2454 26.9184 12.0254M18.2384 11.1783C17.8836 11.4117 17.4558 11.5988 16.9805 11.7286C16.5051 11.8584 15.992 11.9282 15.4717 11.9339C14.9514 11.9395 14.4346 11.8808 13.9521 11.7614C13.4696 11.6419 13.0313 11.4641 12.6633 11.2386C12.2954 11.0131 12.0053 10.7444 11.8104 10.4487C11.6155 10.153 11.5198 9.83623 11.529 9.51734C11.5381 9.19844 11.652 8.88395 11.8638 8.59262C12.0756 8.30129 12.381 8.03909 12.7617 7.82166M1.29169 0.791656L29.7084 18.2083" stroke="#636363" stroke-width="4" stroke-linecap="round" stroke-linejoin="round"/>
</svg>
